Coordinates
version=1
nRows=11
nColumns=36
inDegrees=yes

Units are S.I. units (second, meters, Newtons, ...)
If the header above contains a line with 'inDegrees', this indicates whether rotational values are in degrees (yes) or radians (no).

endheader
time	pelvis_tilt	pelvis_list	pelvis_rotation	pelvis_tx	pelvis_ty	pelvis_tz	hip_flexion_r	hip_adduction_r	hip_rotation_r	knee_angle_r	knee_angle_r_beta	ankle_angle_r	subtalar_angle_r	mtp_angle_r	hip_flexion_l	hip_adduction_l	hip_rotation_l	knee_angle_l	knee_angle_l_beta	ankle_angle_l	subtalar_angle_l	mtp_angle_l	lumbar_extension	lumbar_bending	lumbar_rotation	arm_flex_r	arm_add_r	arm_rot_r	elbow_flex_r	pro_sup_r	arm_flex_l	arm_add_l	arm_rot_l	elbow_flex_l	pro_sup_l
     30.30000000	     -8.14345868	     -0.41809405	     -0.13945146	      0.88422102	      0.78570313	      0.72526389	     -4.91007611	      3.24645951	      0.21473296	     10.64626403	      0.18581236	     21.70980234	      6.47022941	     -7.49999987	     34.57077779	     -0.27879197	      1.20281823	      5.28451721	      0.09223222	      6.30436105	      6.25797372	     -7.49999987	      4.35992997	      2.98960854	      3.34583352	      9.95884255	    -16.20032068	      9.61945570	     21.69100535	     90.43321289	      4.29640042	     -7.76860896	      5.00830505	     10.21942369	     94.08282886
     30.31666670	     -8.07988298	      0.01165620	     -0.10356712	      0.88817183	      0.78468065	      0.72327308	     -6.19551657	      2.60086977	      0.85252902	     10.42583220	      0.18196510	     21.60324622	      5.27830333	     -7.49999987	     34.24622859	      0.42777738	      0.85413757	      6.79398988	      0.11857749	      5.28762989	      5.49134540	     -7.49999987	      4.65470034	      2.47656114	      3.77854584	      9.47540534	    -16.12438716	      9.72318142	     20.96367411	     90.66915256	      4.66994841	     -7.63794737	      4.85711898	      9.28766964	     94.13961542
     30.33333330	     -8.13251214	      0.47779752	     -0.07206587	      0.89213872	      0.78153474	      0.72099268	     -7.16328213	      1.83443361	      0.98296802	     10.70292704	      0.18680132	     21.33828653	      4.86430360	     -7.49999987	     34.03521260	      1.15870974	      0.39705395	      8.49015313	      0.14818113	      4.27530278	      5.00853655	     -7.49999987	      5.07068942	      1.92353810	      3.81971073	      8.93841694	    -15.96461845	      9.77397263	     20.73567211	     90.73509893	      4.48070847	     -7.72482515	      4.81819340	      9.11182097	     94.14858663
     30.35000000	     -8.29533148	      0.88641310	     -0.09085880	      0.89566467	      0.77794079	      0.71898958	     -7.72900039	      1.15909795	      1.64773317	     11.50404324	      0.20078343	     20.21137978	      3.18622117	     -7.49999987	     33.86335955	      1.83076679	      0.44371386	     10.08437634	      0.17600557	      3.05211016	      3.59036440	     -7.49999987	      5.66754656	      1.45535473	      4.22996594	      8.17708284	    -15.81687438	      9.75231854	     20.11008993	     90.95039065	      4.50186806	     -7.72154556	      4.65253881	      8.70061554	     94.14229788
     30.36666670	     -8.45865033	      1.23833451	     -0.03749142	      0.89871623	      0.77699863	      0.71821178	     -7.85081326	      0.52868451	      1.95408941	     13.04780063	      0.22772708	     18.74532013	      1.78747298	     -7.49999987	     33.68998805	      2.43455672	      0.37149678	     11.70593106	      0.20430704	      2.09010925	      2.39690606	     -7.49999987	      6.22002104	      1.03940596	      4.32300040	      7.41515231	    -15.57480843	      9.62066870	     19.57214730	     91.13001249	      4.35362235	     -7.78790596	      4.48768244	      8.52531878	     94.10041683
     30.38333330	     -8.43464690	      1.55133441	      0.09950921	      0.90189304	      0.78088907	      0.71844921	     -7.58734038	     -0.06660349	      1.93726190	     15.53610791	      0.27115624	     16.69497211	      0.57045735	     -7.49999987	     33.26098854	      2.98833463	      0.32175090	     13.32708851	      0.23260157	      1.60310193	      1.41721930	     -7.49999987	      6.51604295	      0.55690222	      4.22902138	      6.56444782	    -15.13294225	      9.54075383	     18.98567099	     91.25235843	      4.24968489	     -7.95339463	      4.37515782	      8.47971102	     94.06233968
     30.40000000	     -8.92555698	      1.73088706	      0.24962589	      0.90480639	      0.78792485	      0.71856777	     -6.05949894	     -0.46108373	      2.30565893	     19.13565950	      0.33398026	     13.26904507	     -1.68480514	     -7.49999987	     33.28081438	      3.39723969	      0.52654304	     14.86389724	      0.25942395	      1.39685773	      0.11583633	     -7.49999987	      7.57570178	      0.25706195	      4.03949127	      5.57739333	    -14.40239879	      9.20343524	     17.51094849	     90.40069689	      3.88110184	     -8.12229518	      4.76682127	      8.31771716	     92.11872250
     30.41666670	     -9.06049886	      1.95782337	      0.35272010	      0.90592324	      0.79580009	      0.71800805	     -4.17550901	     -0.92287532	      2.43438555	     23.80678000	      0.41550670	      9.08874574	     -3.62667610	     -7.49999987	     32.77911499	      3.75730801	      0.45565339	     16.14560731	      0.28179401	      1.96919670	     -0.41246178	     -7.49999987	      7.98271799	     -0.15579145	      3.80582552	      4.58968453	    -13.64958476	      8.06431168	     16.46718096	     94.64453539	      3.84357500	     -8.38155879	      4.60758778	      8.07136302	     93.94325709
     30.43333330	     -8.99106113	      2.24973692	      0.44750477	      0.90689133	      0.80173858	      0.71644276	     -2.04744022	     -1.44736050	      2.33274303	     29.01940900	      0.50648423	      4.41791952	     -5.32515294	     -7.49999987	     31.82463150	      4.19004145	      0.52768848	     16.94400570	      0.29572869	      2.82799081	     -0.89566963	     -7.49999987	      8.02311988	     -0.65123568	      3.43340609	      3.83168250	    -12.84495097	      8.08527570	     15.39395767	     92.56019148	      3.95399900	     -8.67042240	      5.20556528	      7.91032162	     91.76536690
     30.45000000	     -8.81367433	      2.58645340	      0.38378807	      0.90897008	      0.80534835	      0.71400584	      0.32134967	     -1.97454330	      2.31588693	     34.47110260	      0.60163424	     -0.51773974	     -7.16347496	     -7.49999987	     30.52547899	      4.61794021	      0.48245127	     17.27726527	      0.30154516	      3.74205945	     -1.39272580	     -7.49999987	      7.77916137	     -1.14414029	      3.14767785	      3.17153188	    -12.15495868	      8.01354524	     14.53826447	     92.80414689	      4.19945864	     -8.95007432	      5.26530085	      7.73471024	     91.98979917
     30.46666670	     -8.56654735	      2.92694849	      0.24141757	      0.91076506	      0.80623304	      0.71071093	      2.97625443	     -2.48159891	      2.30764945	     40.10469306	      0.69995894	     -5.05149989	     -8.92338647	     -7.49999987	     28.98019908	      5.09454474	      0.50803224	     17.26004720	      0.30124465	      4.60991717	     -1.82004436	     -7.49999987	      7.51650935	     -1.60827214	      2.78739990	      2.79174525	    -11.56970718	      7.83148283	     13.71797093	     93.02216528	      4.46459907	     -9.13664889	      5.34408541	      7.53973382	     92.22553452
